<?xml version="1.0" encoding="utf-8"?>
<!-- Generator: Adobe Illustrator 15.0.0, SVG Export Plug-In . SVG Version: 6.00 Build 0)  -->
<!DOCTYPE svg PUBLIC "-//W3C//DTD SVG 1.1//EN" "http://www.w3.org/Graphics/SVG/1.1/DTD/svg11.dtd">
<svg version="1.1" id="图层_1" xmlns="http://www.w3.org/2000/svg" xmlns:xlink="http://www.w3.org/1999/xlink" x="0px" y="0px"
	 width="1124px" height="1124px" viewBox="0 0 1124 1124" enable-background="new 0 0 1124 1124" xml:space="preserve">
<path d="M1022.8,1025.216c0,0-74.021,47.189-204.8,48.762c-70.101,0.834-158.774-21.449-256-48.762
	c-78.075-21.904-143.775-46.284-204.8-48.761c-156.825-6.452-256,48.761-256,48.761H50V537.608v-48.764h51.2v-48.761h51.2h51.2
	v48.761h-51.2v48.764h-51.2v438.847c78.8-27.499,175.2-52.522,256-48.761c116.075,5.401,204.8,48.761,204.8,48.761
	c97.375,34.071,183.649,50.904,256,48.761c124.825-3.762,204.8-48.761,204.8-48.761V537.608h-51.2H920.4v-48.764H971.6h51.2h51.2
	v48.764v487.605L1022.8,1025.216L1022.8,1025.216z M562,830.173c-106.5,0-288.675-234.494-307.2-438.847
	C232.525,146.45,413.975,50,562,50c148.024,0,329.425,96.45,307.2,341.326C850.675,595.679,668.45,830.173,562,830.173z
	 M564.875,98.713C451.1,98.713,288.9,207.592,306,391.278c14.225,153.306,177.05,390.086,258.875,390.086
	c81.8,0,238.899-236.828,253.125-390.086C835.05,207.64,678.575,98.713,564.875,98.713z M664.399,440.087H613.2v48.761H510.8
	v-48.761h-51.2v-48.761H408.4v-97.522H459.6v-48.761h51.2v-48.761h102.4v48.761h51.199v48.761h51.198v97.522h-51.198V440.087z
	 M613.2,293.804H510.8v97.522h102.4V293.804z"/>
</svg>
