<?xml version="1.0" encoding="utf-8"?>
<!-- Generator: Adobe Illustrator 15.0.0, SVG Export Plug-In . SVG Version: 6.00 Build 0)  -->
<!DOCTYPE svg PUBLIC "-//W3C//DTD SVG 1.1//EN" "http://www.w3.org/Graphics/SVG/1.1/DTD/svg11.dtd">
<svg version="1.1" id="图层_1" xmlns="http://www.w3.org/2000/svg" xmlns:xlink="http://www.w3.org/1999/xlink" x="0px" y="0px"
	 width="1124px" height="1124px" viewBox="0 0 1124 1124" enable-background="new 0 0 1124 1124" xml:space="preserve">
<path d="M562,737.233c-21.3,0-38.55,17.251-38.55,38.502c0,21.301,17.25,38.602,38.55,38.602c21.25,0,38.5-17.301,38.5-38.602
	C600.5,754.484,583.25,737.233,562,737.233z M562,289.262c-77.6,0-140.699,63.153-140.699,140.757
	c0,12.9,10.449,23.401,23.399,23.401c12.899,0,23.399-10.5,23.399-23.401c0-51.803,42.101-93.955,93.899-93.955
	c51.801,0,93.9,42.152,93.9,93.955c0,51.751-42.101,93.904-93.9,93.904c-12.899,0-23.399,10.5-23.399,23.401v99.055
	c0,12.9,10.5,23.401,23.399,23.401c12.9,0,23.4-10.501,23.4-23.401v-77.604c66.5-11.201,117.3-69.153,117.3-138.757
	C702.7,352.415,639.6,289.262,562,289.262z M562,1027.197L562,1027.197c-256.5,0-465.2-208.66-465.2-465.223
	C96.8,305.462,305.5,96.802,562,96.802s465.2,208.66,465.2,465.173C1027.2,818.537,818.5,1027.197,562,1027.197z M562,50
	C279.7,50,50,279.661,50,561.975C50,844.339,279.7,1074,562,1074v-23.401V1074c282.301,0,512-229.661,512-512.025
	C1074,279.661,844.3,50,562,50z"/>
</svg>
