<?xml version="1.0" encoding="utf-8"?>
<!-- Generator: Adobe Illustrator 15.0.0, SVG Export Plug-In . SVG Version: 6.00 Build 0)  -->
<!DOCTYPE svg PUBLIC "-//W3C//DTD SVG 1.1//EN" "http://www.w3.org/Graphics/SVG/1.1/DTD/svg11.dtd">
<svg version="1.1" id="图层_1" xmlns="http://www.w3.org/2000/svg" xmlns:xlink="http://www.w3.org/1999/xlink" x="0px" y="0px"
	 width="1124px" height="1124px" viewBox="0 0 1124 1124" enable-background="new 0 0 1124 1124" xml:space="preserve">
<path fill-rule="evenodd" clip-rule="evenodd" d="M710.575,907.987c-14.05,71.776-75.231,125.771-148.575,125.771
	c-73.343,0-134.524-53.994-148.576-125.771H137.418L258.72,656.352V404.763c0-173.685,135.769-314.521,303.28-314.521
	s303.28,140.836,303.28,314.521v251.589l121.302,251.636H710.575z M562,970.873c39.528,0,72.883-26.353,85.414-62.886H476.586
	C489.118,944.521,522.425,970.873,562,970.873z M804.605,656.352V404.763c0-138.947-108.634-251.589-242.605-251.589
	S319.396,265.815,319.396,404.763v251.589L228.36,845.055h667.234L804.605,656.352z"/>
</svg>
