<?xml version="1.0" encoding="utf-8"?>
<!-- Generator: Adobe Illustrator 15.0.0, SVG Export Plug-In . SVG Version: 6.00 Build 0)  -->
<!DOCTYPE svg PUBLIC "-//W3C//DTD SVG 1.1//EN" "http://www.w3.org/Graphics/SVG/1.1/DTD/svg11.dtd">
<svg version="1.1" id="图层_1" xmlns="http://www.w3.org/2000/svg" xmlns:xlink="http://www.w3.org/1999/xlink" x="0px" y="0px"
	 width="1124px" height="1124px" viewBox="0 0 1124 1124" enable-background="new 0 0 1124 1124" xml:space="preserve">
<g>
	<g>
		<path fill-rule="evenodd" clip-rule="evenodd" d="M913.762,50H210.19C121.714,50,50,121.738,50,210.214v703.572
			C50,1002.262,121.714,1074,210.19,1074h703.571c88.523,0,160.238-71.738,160.238-160.214V210.214
			C1074,121.738,1002.285,50,913.762,50z M1025.238,878.952c0,80.786-65.477,146.286-146.286,146.286H245.048
			c-80.81,0-146.286-65.5-146.286-146.286V245.047c0-80.786,65.477-146.286,146.286-146.286h633.904
			c80.81,0,146.286,65.5,146.286,146.286V878.952z M699.904,389.595L562,527.524L424.096,389.595l-34.477,34.476L527.523,562
			L389.619,699.904l34.477,34.477L562,596.477l137.904,137.904l34.477-34.477L596.476,562l137.905-137.929L699.904,389.595z"/>
	</g>
</g>
</svg>
