<?xml version="1.0" encoding="utf-8"?>
<!-- Generator: Adobe Illustrator 15.0.0, SVG Export Plug-In . SVG Version: 6.00 Build 0)  -->
<!DOCTYPE svg PUBLIC "-//W3C//DTD SVG 1.1//EN" "http://www.w3.org/Graphics/SVG/1.1/DTD/svg11.dtd">
<svg version="1.1" id="图层_1" xmlns="http://www.w3.org/2000/svg" xmlns:xlink="http://www.w3.org/1999/xlink" x="0px" y="0px"
	 width="1124px" height="1124px" viewBox="0 0 1124 1124" enable-background="new 0 0 1124 1124" xml:space="preserve">
<path fill-rule="evenodd" clip-rule="evenodd" d="M1005.733,1005.733V1074h-819.2h-68.267v-68.267H50v-819.2v-68.267h68.267V50
	h409.6v68.267H186.533v68.267h-68.267v750.934h68.267v68.267h750.933v-68.267h68.268V596.134H1074v341.333v68.267H1005.733z
	 M869.199,869.2H254.8v-68.267h614.399V869.2z M254.8,391.333h204.8V459.6H254.8V391.333z M869.199,732.667H254.8V664.4h614.399
	V732.667z M1005.733,391.333H869.199v-68.267h136.534v-204.8H800.933V254.8h-68.267V118.267h-68.267V50H1074v68.267V459.6h-68.267
	V391.333z M664.399,323.067V254.8h68.267v68.267H664.399z M869.199,391.333V459.6h-68.267v-68.266H869.199z M800.933,527.867
	H664.399V459.6h136.533V527.867z M596.133,459.6V323.067h68.267V459.6H596.133z"/>
</svg>
