<?xml version="1.0" encoding="utf-8"?>
<!-- Generator: Adobe Illustrator 15.0.0, SVG Export Plug-In . SVG Version: 6.00 Build 0)  -->
<!DOCTYPE svg PUBLIC "-//W3C//DTD SVG 1.1//EN" "http://www.w3.org/Graphics/SVG/1.1/DTD/svg11.dtd">
<svg version="1.1" id="图层_1" xmlns="http://www.w3.org/2000/svg" xmlns:xlink="http://www.w3.org/1999/xlink" x="0px" y="0px"
	 width="1124px" height="1124px" viewBox="0 0 1124 1124" enable-background="new 0 0 1124 1124" xml:space="preserve">
<path d="M1064.291,1064.446c-12.944,12.737-33.892,12.737-46.837,0L751.967,803.259c-74.021,59.133-168.284,94.672-271.137,94.672
	C242.879,897.931,50,708.116,50,473.966S242.879,50,480.83,50s430.83,189.815,430.83,423.966
	c0,109.47-42.482,208.938-111.797,284.164l264.429,260.187C1077.236,1031.085,1077.236,1051.708,1064.291,1064.446z M480.83,115.194
	c-201.352,0-364.575,160.631-364.575,358.772c0,198.14,163.223,358.771,364.575,358.771c201.352,0,364.576-160.631,364.576-358.771
	C845.405,275.826,682.182,115.194,480.83,115.194z"/>
</svg>
