<?xml version="1.0" encoding="utf-8"?>
<!-- Generator: Adobe Illustrator 15.0.0, SVG Export Plug-In . SVG Version: 6.00 Build 0)  -->
<!DOCTYPE svg PUBLIC "-//W3C//DTD SVG 1.1//EN" "http://www.w3.org/Graphics/SVG/1.1/DTD/svg11.dtd">
<svg version="1.1" id="图层_1" xmlns="http://www.w3.org/2000/svg" xmlns:xlink="http://www.w3.org/1999/xlink" x="0px" y="0px"
	 width="1124px" height="1124px" viewBox="0 0 1124 1124" enable-background="new 0 0 1124 1124" xml:space="preserve">
<path d="M1025.25,1074H245.035h-48.762v-53.896V804.521H49.988V211.688L196.274,50h536.404v161.688H245.035L196.274,319.48v377.248
	v53.896h48.762v53.896v215.584h780.214V211.688H830.202v-53.896h195.048h48.762v53.896v808.415V1074H1025.25z M342.56,481.116
	h48.762v107.792H342.56v53.923h-48.761V319.428h48.762L342.56,481.116L342.56,481.116z M440.083,427.273V319.48h48.764v161.688
	h48.762V588.96h-48.762v53.87h-48.764V481.169h-48.762v-53.896H440.083z M586.369,427.273v53.896h-48.762v-53.896H586.369z
	 M635.131,373.324v53.896h-48.762v-53.896H635.131z M732.679,696.728v-485.04h48.762v485.04v53.896H245.035v-53.896H732.679
	L732.679,696.728z"/>
<path fill="#FFFFFF" d="M196.964,172.507V118.61H684.56v53.896H196.964z M196.964,172.507v53.896h-48.763v-53.896H196.964
	 M148.201,226.402v538.986H99.44V226.402H148.201"/>
</svg>
