<?xml version="1.0" encoding="utf-8"?>
<!-- Generator: Adobe Illustrator 15.0.0, SVG Export Plug-In . SVG Version: 6.00 Build 0)  -->
<!DOCTYPE svg PUBLIC "-//W3C//DTD SVG 1.1//EN" "http://www.w3.org/Graphics/SVG/1.1/DTD/svg11.dtd">
<svg version="1.1" id="图层_1" xmlns="http://www.w3.org/2000/svg" xmlns:xlink="http://www.w3.org/1999/xlink" x="0px" y="0px"
	 width="1124px" height="1124px" viewBox="0 0 1124 1124" enable-background="new 0 0 1124 1124" xml:space="preserve">
<g>
	<g>
		<path fill="#040000" d="M562,50C279.19,50,50,279.214,50,562c0,282.762,229.19,512,512,512c282.762,0,512-229.238,512-512
			C1074,279.214,844.762,50,562,50z M780.952,585.762c-18.333,10.715-307.333,178.238-329,190.166
			c-15.905,8.765-61.095,1.931-61.095-43.881c0-20.188,0-327.404,0-341.333c0-45.5,30.143-59.333,48.762-48.762
			C454.572,350.405,755.477,522.381,780.952,537C797.667,546.595,797.381,576.143,780.952,585.762z"/>
	</g>
</g>
</svg>
