<?xml version="1.0" encoding="utf-8"?>
<!-- Generator: Adobe Illustrator 15.0.0, SVG Export Plug-In . SVG Version: 6.00 Build 0)  -->
<!DOCTYPE svg PUBLIC "-//W3C//DTD SVG 1.1//EN" "http://www.w3.org/Graphics/SVG/1.1/DTD/svg11.dtd">
<svg version="1.1" id="图层_1" xmlns="http://www.w3.org/2000/svg" xmlns:xlink="http://www.w3.org/1999/xlink" x="0px" y="0px"
	 width="1124px" height="1124px" viewBox="0 0 1124 1124" enable-background="new 0 0 1124 1124" xml:space="preserve">
<path d="M964.364,989.513v50.295H209.932h-50.297v-50.295h-50.296V285.375h50.296v-50.296h201.183v-50.295h50.296h50.295v-50.296
	h50.295V84.192h100.593v50.295h50.295v50.296h100.59v50.295h150.888h50.297v50.296h50.295v653.841v50.297H964.364z M712.886,235.078
	h-50.295h-50.295v-50.295H511.703v50.295h-50.295h-50.295v100.591h301.771L712.886,235.078L712.886,235.078z M964.364,335.669
	h-50.297v-50.295H763.181v100.591h-50.295H360.818v-50.296v-50.295H209.932v50.295h-50.297v603.546h50.297v50.297h704.136v-50.297
	h50.298L964.364,335.669L964.364,335.669z M360.818,838.626h402.363v50.294H360.818V838.626z M360.818,687.738h402.363v50.296
	H360.818V687.738z M360.818,536.852h402.363v50.296H360.818V536.852z"/>
</svg>
