<?xml version="1.0" encoding="utf-8"?>
<!-- Generator: Adobe Illustrator 15.0.0, SVG Export Plug-In . SVG Version: 6.00 Build 0)  -->
<!DOCTYPE svg PUBLIC "-//W3C//DTD SVG 1.1//EN" "http://www.w3.org/Graphics/SVG/1.1/DTD/svg11.dtd">
<svg version="1.1" id="图层_1" xmlns="http://www.w3.org/2000/svg" xmlns:xlink="http://www.w3.org/1999/xlink" x="0px" y="0px"
	 width="1124px" height="1124px" viewBox="0 0 1124 1124" enable-background="new 0 0 1124 1124" xml:space="preserve">
<g>
	<g>
		<path fill="#040000" d="M562,100C279.208,100,50,329.229,50,612c0,282.75,229.208,512,512,512c282.75,0,512-229.25,512-512
			C1074,329.229,844.75,100,562,100z M562,1089.854c-263.917,0-477.875-213.938-477.875-477.854S298.083,134.125,562,134.125
			S1039.875,348.083,1039.875,612S825.917,1089.854,562,1089.854z M506.833,472.458l-30.167-30.167L327.334,590.667l0,0v0.958
			v-0.958v4v36.146l0,0l149.333,152.354L506.833,753L387.167,633.334h409.5v-42.667H388.625L506.833,472.458z"/>
	</g>
</g>
</svg>
