<?xml version="1.0" encoding="utf-8"?>
<!-- Generator: Adobe Illustrator 15.0.0, SVG Export Plug-In . SVG Version: 6.00 Build 0)  -->
<!DOCTYPE svg PUBLIC "-//W3C//DTD SVG 1.1//EN" "http://www.w3.org/Graphics/SVG/1.1/DTD/svg11.dtd">
<svg version="1.1" id="图层_1" xmlns="http://www.w3.org/2000/svg" xmlns:xlink="http://www.w3.org/1999/xlink" x="0px" y="0px"
	 width="1124px" height="1124px" viewBox="0 0 1124 1124" enable-background="new 0 0 1124 1124" xml:space="preserve">
<path d="M1005.732,391.333V254.8H1074v136.533H1005.732z M800.934,323.067V254.8H869.2v68.267H800.934z M732.667,391.333v-68.267
	h68.267v68.267H732.667z M664.4,459.6v-68.267h68.267V459.6H664.4z M596.133,527.867V459.6H664.4v68.267H596.133z M527.866,596.133
	v-68.266h68.267v68.266H527.866z M664.4,732.667v68.267H527.866H459.6V596.133h68.268v136.534H664.4z M732.667,664.4v68.267H664.4
	V664.4H732.667z M800.934,596.133V664.4h-68.267v-68.269L800.934,596.133L800.934,596.133z M869.2,527.867v68.266h-68.268v-68.266
	H869.2z M937.467,459.6v68.267H869.2V459.6H937.467z M1005.732,391.333V459.6h-68.267v-68.267H1005.732z M869.2,186.534h136.533
	V254.8H869.2V186.534z M596.133,323.067h-68.267V254.8h68.267V323.067z M391.333,800.934H254.8v-68.267h136.533V800.934z
	 M391.333,664.4H254.8v-68.269h136.533V664.4z M254.8,323.067h136.533v68.267H254.8V323.067z M391.333,527.867H254.8V459.6h136.533
	V527.867z M664.4,186.534h68.267V254.8H664.4V186.534z M596.133,118.267H664.4v68.267h-68.269L596.133,118.267L596.133,118.267z
	 M118.267,1005.733h682.667V732.667H869.2v273.066V1074h-68.268H118.267H50v-68.267V50h68.267h477.866v68.267H118.267V1005.733z"/>
</svg>
