<?xml version="1.0" encoding="utf-8"?>
<!-- Generator: Adobe Illustrator 15.0.0, SVG Export Plug-In . SVG Version: 6.00 Build 0)  -->
<!DOCTYPE svg PUBLIC "-//W3C//DTD SVG 1.1//EN" "http://www.w3.org/Graphics/SVG/1.1/DTD/svg11.dtd">
<svg version="1.1" id="图层_1" xmlns="http://www.w3.org/2000/svg" xmlns:xlink="http://www.w3.org/1999/xlink" x="0px" y="0px"
	 width="1124px" height="1124px" viewBox="0 0 1124 1124" enable-background="new 0 0 1124 1124" xml:space="preserve">
<path fill-rule="evenodd" clip-rule="evenodd" d="M860.645,441.032c-62.006,0-117.369-25.468-156.285-65.408L466.618,504.065
	c6.011,18.429,10.124,37.648,10.124,57.974c0,32.823-9.174,63.351-23.886,90.795l228.411,123.38
	c37.967-55.917,103.926-93.247,179.379-93.247c117.842,0,213.225,90.321,213.225,201.68s-95.383,201.681-213.225,201.681
	c-117.846,0-213.387-90.322-213.387-201.681c0-7.436,1.582-14.553,2.373-21.75L391.323,723.382l0.791-1.581
	c-35.749,25.862-80.039,41.837-128.758,41.837c-117.843,0-213.226-90.24-213.226-201.599c0-111.438,95.382-201.679,213.226-201.679
	c62.006,0,117.369,25.387,156.281,65.328l237.746-128.363c-6.012-18.507-10.125-37.646-10.125-57.972
	c0-111.36,95.541-201.681,213.387-201.681c117.842,0,213.225,90.32,213.225,201.681
	C1073.869,350.711,978.486,441.032,860.645,441.032z M860.645,1005.655c70.705,0,127.965-54.179,127.965-121.009
	s-57.26-121.009-127.965-121.009c-70.707,0-127.969,54.179-127.969,121.009S789.938,1005.655,860.645,1005.655z M263.356,441.032
	c-70.706,0-127.967,54.176-127.967,121.007c0,66.83,57.261,120.928,127.967,120.928c70.707,0,127.967-54.098,127.967-120.928
	C391.323,495.208,334.063,441.032,263.356,441.032z M860.645,118.345c-70.707,0-127.969,54.177-127.969,121.009
	c0,66.83,57.262,121.007,127.969,121.007c70.705,0,127.965-54.177,127.965-121.007C988.609,172.521,931.35,118.345,860.645,118.345z
	"/>
</svg>
