<?xml version="1.0" encoding="utf-8"?>
<!-- Generator: Adobe Illustrator 15.0.0, SVG Export Plug-In . SVG Version: 6.00 Build 0)  -->
<!DOCTYPE svg PUBLIC "-//W3C//DTD SVG 1.1//EN" "http://www.w3.org/Graphics/SVG/1.1/DTD/svg11.dtd">
<svg version="1.1" id="图层_1" xmlns="http://www.w3.org/2000/svg" xmlns:xlink="http://www.w3.org/1999/xlink" x="0px" y="0px"
	 width="1124px" height="1124px" viewBox="0 0 1124 1124" enable-background="new 0 0 1124 1124" xml:space="preserve">
<path fill-rule="evenodd" clip-rule="evenodd" d="M941.765,1050.199H182.163c-69.96,0-126.589-54.643-126.589-122.022v-732.28
	c0-67.455,56.629-122.096,126.589-122.096h759.602c69.959,0,126.661,54.641,126.661,122.096v732.28
	C1068.426,995.557,1011.724,1050.199,941.765,1050.199z M941.765,989.151c35.052,0,63.33-27.321,63.33-60.975V683.985
	L815.249,500.914l-270.26,260.465L778.21,989.151H941.765z M118.832,928.177c0,33.653,28.352,60.975,63.331,60.975h506.425
	L370.314,682.363L118.832,899.457V928.177z M1005.095,195.896c0-33.728-28.278-61.049-63.33-61.049H182.163
	c-34.979,0-63.331,27.321-63.331,61.049V816.39l253.25-223.866l128.429,125.409l314.738-308.479l189.846,186.974V195.896z
	 M308.752,439.94c-69.96,0-126.589-54.641-126.589-122.021c0-67.382,56.629-122.022,126.589-122.022
	c69.956,0,126.661,54.641,126.661,122.022C435.413,385.3,378.708,439.94,308.752,439.94z M308.752,256.87
	c-34.907,0-63.331,27.32-63.331,61.049c0,33.728,28.424,61.047,63.331,61.047c34.979,0,63.33-27.319,63.33-61.047
	C372.082,284.19,343.731,256.87,308.752,256.87z"/>
</svg>
