<?xml version="1.0" encoding="utf-8"?>
<!-- Generator: Adobe Illustrator 15.0.0, SVG Export Plug-In . SVG Version: 6.00 Build 0)  -->
<!DOCTYPE svg PUBLIC "-//W3C//DTD SVG 1.1//EN" "http://www.w3.org/Graphics/SVG/1.1/DTD/svg11.dtd">
<svg version="1.1" id="图层_1" xmlns="http://www.w3.org/2000/svg" xmlns:xlink="http://www.w3.org/1999/xlink" x="0px" y="0px"
	 width="1124px" height="1124px" viewBox="0 0 1124 1124" enable-background="new 0 0 1124 1124" xml:space="preserve">
<path fill-rule="evenodd" clip-rule="evenodd" d="M562,931.312c31.625,0,62.428-2.8,92.412-7.773l216.595,130.895v-217.9
	c112.932-78.989,185.404-200.081,185.404-336.093c0-237.936-221.326-430.872-494.411-430.872S67.589,262.503,67.589,500.439
	C67.589,738.422,288.915,931.312,562,931.312z M562,131.128c238.9,0,432.609,165.366,432.609,369.311
	c0,125.148-73.101,235.57-184.631,302.392l1.931,142.725l-145.427-87.055c-33.509,7.099-68.416,11.3-104.482,11.3
	c-238.902,0-432.609-165.369-432.609-369.362C129.391,296.494,323.098,131.128,562,131.128z M345.695,469.684h432.609
	c17.092,0,30.9-13.76,30.9-30.756c0-16.995-13.809-30.805-30.9-30.805H345.695c-17.094,0-30.9,13.81-30.9,30.805
	C314.795,455.923,328.602,469.684,345.695,469.684z M716.504,592.804H407.496c-17.093,0-30.9,13.761-30.9,30.756
	s13.808,30.805,30.9,30.805h309.008c17.091,0,30.9-13.81,30.9-30.805S733.595,592.804,716.504,592.804z"/>
</svg>
