<?xml version="1.0" encoding="utf-8"?>
<!-- Generator: Adobe Illustrator 15.0.0, SVG Export Plug-In . SVG Version: 6.00 Build 0)  -->
<!DOCTYPE svg PUBLIC "-//W3C//DTD SVG 1.1//EN" "http://www.w3.org/Graphics/SVG/1.1/DTD/svg11.dtd">
<svg version="1.1" id="图层_1" xmlns="http://www.w3.org/2000/svg" xmlns:xlink="http://www.w3.org/1999/xlink" x="0px" y="0px"
	 width="1124px" height="1124px" viewBox="0 0 1124 1124" enable-background="new 0 0 1124 1124" xml:space="preserve">
<g>
	<g>
		<path fill-rule="evenodd" clip-rule="evenodd" d="M331.506,469.803v92.198v92.196h92.197h92.197v-92.196v-92.198h-92.197H331.506z
			 M608.1,469.803v92.198v92.196h92.196h92.197v-92.196v-92.198h-92.197H608.1z M792.493,101.015H331.506
			c-152.791,0-276.59,123.89-276.59,276.592v276.591c0,152.791,123.799,276.591,276.59,276.591h460.987l276.591,92.197V654.197
			V377.606C1069.084,224.904,945.283,101.015,792.493,101.015z M976.886,623.585v307.203l-226.35-92.196H373.373
			c-124.968,0-226.26-96.339-226.26-215.007V408.398c0-118.848,101.292-215.188,226.26-215.188h377.164
			c125.06,0,226.35,96.34,226.35,215.188V623.585z"/>
	</g>
</g>
</svg>
