<?xml version="1.0" encoding="utf-8"?>
<!-- Generator: Adobe Illustrator 15.0.0, SVG Export Plug-In . SVG Version: 6.00 Build 0)  -->
<!DOCTYPE svg PUBLIC "-//W3C//DTD SVG 1.1//EN" "http://www.w3.org/Graphics/SVG/1.1/DTD/svg11.dtd">
<svg version="1.1" id="图层_1" xmlns="http://www.w3.org/2000/svg" xmlns:xlink="http://www.w3.org/1999/xlink" x="0px" y="0px"
	 width="1124px" height="1124px" viewBox="0 0 1124 1124" enable-background="new 0 0 1124 1124" xml:space="preserve">
<path fill="#040000" d="M936.191,977.766V728.307h83.152v249.459H936.191z M853.038,645.15h83.153v83.156h-83.153V645.15z
	 M686.73,645.15h-83.152v-83.152h83.152v-83.152h83.153v83.152h83.153v83.152h-83.153H686.73z M686.73,146.23h83.153v83.153H686.73
	V146.23z M354.116,229.385V146.23h83.154v83.153L354.116,229.385L354.116,229.385z M437.271,561.998h83.152v83.153H270.963v-83.153
	h83.153v-83.152h83.154V561.998z M187.809,728.307V645.15h83.154v83.156H187.809z M936.191,1060.922H187.809v-83.156h748.382
	V1060.922L936.191,1060.922z M104.656,977.766V728.307h83.153v249.459H104.656z M270.963,478.846V229.385h83.153v249.461H270.963z
	 M437.271,63.079h249.46v83.152h-249.46V63.079z M853.038,229.385v249.461h-83.153V229.385H853.038z"/>
</svg>
