<?xml version="1.0" encoding="utf-8"?>
<!-- Generator: Adobe Illustrator 15.0.0, SVG Export Plug-In . SVG Version: 6.00 Build 0)  -->
<!DOCTYPE svg PUBLIC "-//W3C//DTD SVG 1.1//EN" "http://www.w3.org/Graphics/SVG/1.1/DTD/svg11.dtd">
<svg version="1.1" id="图层_1" xmlns="http://www.w3.org/2000/svg" xmlns:xlink="http://www.w3.org/1999/xlink" x="0px" y="0px"
	 width="1124px" height="1124px" viewBox="0 0 1124 1124" enable-background="new 0 0 1124 1124" xml:space="preserve">
<g>
	<g>
		<path d="M308.387,615.396l48.021,25.318l43.517-27.938c-92.089-8.549-140.063-71.963-140.063-170.762
			c0-98.845,53.765-157.251,145.854-165.798v-41.953c-114.514,8.548-188.222,88.138-188.222,207.753
			C217.492,520.872,252.003,580.381,308.387,615.396z M264.548,891.389V985.5h42.827l-0.827-94.111
			c49.354-114.469,150.727-199.803,273.558-227.375c-14.98-9.832-31.109-20.492-44.712-29.914
			C411.321,673.803,311.604,769.201,264.548,891.389z M684.004,138.499c-140.247,0-231.325,93.009-231.232,235.278
			c0,141.259,95.214,229.995,235.277,235.278C828.158,614.293,923.326,516,923.326,373.776
			C923.326,231.507,824.252,138.499,684.004,138.499z M688.049,562c-118.697,0-188.223-67.872-188.223-188.223
			c0-120.396,69.524-188.223,188.223-188.223c118.648,0,188.223,67.826,188.223,188.223C876.271,494.127,806.697,562,688.049,562z
			 M1068.123,891.389c1.838-21.965-88.597-145.303-169.703-206.646c-0.046,16.494-0.093,33.451-0.093,48.02
			c53.765,40.943,96.869,95.396,124.071,158.627l4.046,94.113h47.056L1068.123,891.389z M279.345,618.475
			C162.716,676.514,78.576,785.881,50.5,913.721l41.541-6.34c31.523-120.58,118.834-220.252,236.013-266.064
			C311.787,633.871,294.279,625.736,279.345,618.475z"/>
	</g>
</g>
</svg>
