<?xml version="1.0" encoding="utf-8"?>
<!-- Generator: Adobe Illustrator 15.0.0, SVG Export Plug-In . SVG Version: 6.00 Build 0)  -->
<!DOCTYPE svg PUBLIC "-//W3C//DTD SVG 1.1//EN" "http://www.w3.org/Graphics/SVG/1.1/DTD/svg11.dtd">
<svg version="1.1" id="图层_1" xmlns="http://www.w3.org/2000/svg" xmlns:xlink="http://www.w3.org/1999/xlink" x="0px" y="0px"
	 width="1124px" height="1124px" viewBox="0 0 1124 1124" enable-background="new 0 0 1124 1124" xml:space="preserve">
<path d="M751.611,643.314h162.525V589.14H751.611V643.314z M697.438,480.791h216.699v-54.175H697.438V480.791z M1022.486,155.688
	H101.512c-29.971,0-54.175,24.284-54.175,54.175v704.275c0,29.892,24.204,54.175,54.175,54.175h920.976
	c29.891,0,54.174-24.283,54.174-54.175V209.862C1076.662,179.972,1052.379,155.688,1022.486,155.688z M1022.486,860.015
	c0,29.892-24.283,54.175-54.176,54.175h-304.84c-45.498-88.405-133.215-151.045-236.91-160.567v52.219h-27.087
	c84.517,0,158.901,43.012,202.602,108.35H196.848c43.726-65.285,118.11-108.35,202.626-108.35h-27.087V753.57
	c-102.239,9.363-188.687,70.469-234.741,156.917c-20.977-7.515-36.134-27.088-36.134-50.523V264.039
	c0-29.998,24.204-54.176,54.175-54.176h812.625c29.893,0,54.176,24.284,54.176,54.176v595.976H1022.486z M209.862,318.212h704.274
	v-54.175H209.862V318.212z M399.474,372.44c-104.725,0-189.612,84.86-189.612,189.612c0,95.438,70.761,173.688,162.525,186.914
	v-54.175c-61.82-12.539-108.35-67.189-108.35-132.739c0-74.756,60.63-135.438,135.438-135.438
	c74.755,0,135.438,60.682,135.438,135.438c0,65.496-46.53,120.147-108.351,132.739v54.175
	c91.765-13.228,162.525-91.476,162.525-186.914C589.088,457.301,504.148,372.44,399.474,372.44z"/>
</svg>
